{
  "accessors": [
    {
      "bufferView": 2,
      "componentType": 5126,
      "count": 13802,
      "max": [
        139.58154296875,
        141.17620849609375,
        38.820499420166016
      ],
      "min": [
        -139.58154296875,
        -358.54495239257812,
        0.039898019284009933
      ],
      "type": "VEC3"
    },
    {
      "bufferView": 2,
      "byteOffset": 165624,
      "componentType": 5126,
      "count": 13802,
      "max": [
        1,
        1,
        1
      ],
      "min": [
        -1,
        -1,
        -1
      ],
      "type": "VEC3"
    },
    {
      "bufferView": 3,
      "componentType": 5126,
      "count": 13802,
      "max": [
        1,
        1,
        1,
        1
      ],
      "min": [
        -1,
        -1,
        -1,
        -1
      ],
      "type": "VEC4"
    },
    {
      "bufferView": 1,
      "componentType": 5126,
      "count": 13802,
      "max": [
        1.0416666269302368,
        1
      ],
      "min": [
        0,
        0
      ],
      "type": "VEC2"
    },
    {
      "bufferView": 0,
      "componentType": 5125,
      "count": 38460,
      "max": [
        13801
      ],
      "min": [
        0
      ],
      "type": "SCALAR"
    },
    {
      "bufferView": 2,
      "byteOffset": 331248,
      "componentType": 5126,
      "count": 1633,
      "max": [
        132.58607482910156,
        137.08830261230469,
        35.897659301757812
      ],
      "min": [
        -132.58607482910156,
        -222.47314453125,
        2.9627189636230469
      ],
      "type": "VEC3"
    },
    {
      "bufferView": 2,
      "byteOffset": 350844,
      "componentType": 5126,
      "count": 1633,
      "max": [
        0.99056774377822876,
        0.99865096807479858,
        1
      ],
      "min": [
        -0.99056774377822876,
        -1,
        -1
      ],
      "type": "VEC3"
    },
    {
      "bufferView": 3,
      "byteOffset": 220832,
      "componentType": 5126,
      "count": 1633,
      "max": [
        0.99778079986572266,
        0.65760987997055054,
        1,
        1
      ],
      "min": [
        -1,
        -0.99908244609832764,
        -1,
        -1
      ],
      "type": "VEC4"
    },
    {
      "bufferView": 1,
      "byteOffset": 110416,
      "componentType": 5126,
      "count": 1633,
      "max": [
        1.0416666269302368,
        0.87551003694534302
      ],
      "min": [
        0,
        0.017037004232406616
      ],
      "type": "VEC2"
    },
    {
      "bufferView": 0,
      "byteOffset": 153840,
      "componentType": 5125,
      "count": 7152,
      "max": [
        1632
      ],
      "min": [
        0
      ],
      "type": "SCALAR"
    },
    {
      "bufferView": 2,
      "byteOffset": 370440,
      "componentType": 5126,
      "count": 2380,
      "max": [
        119.40427398681641,
        123.81526184082031,
        21.549173355102539
      ],
      "min": [
        -119.40427398681641,
        -125.71515655517578,
        17.311052322387695
      ],
      "type": "VEC3"
    },
    {
      "bufferView": 2,
      "byteOffset": 399000,
      "componentType": 5126,
      "count": 2380,
      "max": [
        1,
        1,
        1
      ],
      "min": [
        -1,
        -1,
        -1
      ],
      "type": "VEC3"
    },
    {
      "bufferView": 3,
      "byteOffset": 246960,
      "componentType": 5126,
      "count": 2380,
      "max": [
        1,
        1,
        1,
        1
      ],
      "min": [
        -1,
        -1,
        -1,
        -1
      ],
      "type": "VEC4"
    },
    {
      "bufferView": 1,
      "byteOffset": 123480,
      "componentType": 5126,
      "count": 2380,
      "max": [
        1.0416666269302368,
        1
      ],
      "min": [
        0.041666656732559204,
        0.13052615523338318
      ],
      "type": "VEC2"
    },
    {
      "bufferView": 0,
      "byteOffset": 182448,
      "componentType": 5125,
      "count": 8424,
      "max": [
        2379
      ],
      "min": [
        0
      ],
      "type": "SCALAR"
    }
  ],
  "asset": {
    "extras": {
      "author": "Anthony Yanez (https://sketchfab.com/paulyanez)",
      "license": "CC-BY-4.0 (http://creativecommons.org/licenses/by/4.0/)",
      "source": "https://sketchfab.com/models/c314dcce06ba488ca624957f579b8196",
      "title": "Tennis Racket"
    },
    "generator": "Sketchfab-3.53.2",
    "version": "2.0"
  },
  "bufferViews": [
    {
      "buffer": 0,
      "byteLength": 216144,
      "byteOffset": 0,
      "name": "floatBufferViews",
      "target": 34963
    },
    {
      "buffer": 0,
      "byteLength": 142520,
      "byteOffset": 216144,
      "byteStride": 8,
      "name": "floatBufferViews",
      "target": 34962
    },
    {
      "buffer": 0,
      "byteLength": 427560,
      "byteOffset": 358664,
      "byteStride": 12,
      "name": "floatBufferViews",
      "target": 34962
    },
    {
      "buffer": 0,
      "byteLength": 285040,
      "byteOffset": 786224,
      "byteStride": 16,
      "name": "floatBufferViews",
      "target": 34962
    }
  ],
  "buffers": [
    {
      "byteLength": 1071264,
      "uri": "scene.bin"
    }
  ],
  "materials": [
    {
      "doubleSided": true,
      "emissiveFactor": [
        0,
        0,
        0
      ],
      "name": "03_-_Default",
      "pbrMetallicRoughness": {
        "baseColorFactor": [
          0,
          0,
          0,
          1
        ],
        "metallicFactor": 1,
        "roughnessFactor": 0.32145579270000002
      }
    },
    {
      "doubleSided": true,
      "emissiveFactor": [
        0,
        0,
        0
      ],
      "name": "02_-_Default",
      "pbrMetallicRoughness": {
        "baseColorFactor": [
          0,
          0.352941,
          1,
          1
        ],
        "metallicFactor": 1,
        "roughnessFactor": 0.48608993899999997
      }
    },
    {
      "doubleSided": true,
      "emissiveFactor": [
        0,
        0,
        0
      ],
      "name": "07_-_Default",
      "pbrMetallicRoughness": {
        "baseColorFactor": [
          1,
          1,
          1,
          1
        ],
        "metallicFactor": 1,
        "roughnessFactor": 0.89297135959999996
      }
    }
  ],
  "meshes": [
    {
      "name": "Tennis Racket_03 - Default_0",
      "primitives": [
        {
          "attributes": {
            "NORMAL": 1,
            "POSITION": 0,
            "TANGENT": 2,
            "TEXCOORD_0": 3
          },
          "indices": 4,
          "material": 0,
          "mode": 4
        }
      ]
    },
    {
      "name": "Tennis Racket_02 - Default_0",
      "primitives": [
        {
          "attributes": {
            "NORMAL": 6,
            "POSITION": 5,
            "TANGENT": 7,
            "TEXCOORD_0": 8
          },
          "indices": 9,
          "material": 1,
          "mode": 4
        }
      ]
    },
    {
      "name": "Tennis Racket_07 - Default_0",
      "primitives": [
        {
          "attributes": {
            "NORMAL": 11,
            "POSITION": 10,
            "TANGENT": 12,
            "TEXCOORD_0": 13
          },
          "indices": 14,
          "material": 2,
          "mode": 4
        }
      ]
    }
  ],
  "nodes": [
    {
      "children": [
        1
      ],
      "name": "RootNode (gltf orientation matrix)",
      "rotation": [
        -0.70710678118654746,
        -0,
        -0,
        0.70710678118654757
      ]
    },
    {
      "children": [
        2
      ],
      "name": "RootNode (model correction matrix)"
    },
    {
      "children": [
        3
      ],
      "matrix": [
        1,
        0,
        0,
        0,
        0,
        0,
        1,
        0,
        0,
        -1,
        0,
        0,
        0,
        0,
        0,
        1
      ],
      "name": "63f3706a3dc247458384c968ac14ac6d.fbx"
    },
    {
      "children": [
        4
      ],
      "name": "RootNode"
    },
    {
      "children": [
        5,
        6,
        7
      ],
      "matrix": [
        1,
        0,
        0,
        0,
        0,
        1.3825509548187072,
        2.2524614269481889e-07,
        0,
        0,
        -1.0566392205871003e-07,
        0.64856052398680775,
        0,
        0,
        0,
        0,
        1
      ],
      "name": "Tennis Racket"
    },
    {
      "mesh": 0,
      "name": "Tennis Racket_03 - Default_0"
    },
    {
      "mesh": 1,
      "name": "Tennis Racket_02 - Default_0"
    },
    {
      "mesh": 2,
      "name": "Tennis Racket_07 - Default_0"
    }
  ],
  "scene": 0,
  "scenes": [
    {
      "name": "OSG_Scene",
      "nodes": [
        0
      ]
    }
  ]
}

